Mondal_No2.ufo
<glyph name="quotedbl" format="1">
  <advance width="726"/>
  <unicode hex="0022"/>
  <outline>
    <contour>
      <point x="294" y="1422" type="line"/>
      <point x="293" y="936" type="line"/>
      <point x="105" y="936" type="line"/>
      <point x="43" y="1422" type="line"/>
    </contour>
    <contour>
      <point x="684" y="1422" type="line"/>
      <point x="614" y="936" type="line"/>
      <point x="444" y="936" type="line"/>
      <point x="444" y="1422" type="line"/>
    </contour>
  </outline>
</glyph>
<glyph name="numbersign" format="1">
  <advance width="1509"/>
  <unicode hex="0023"/>
  <outline>
    <contour>
      <point x="72" y="632" type="line"/>
      <point x="72" y="751" type="line"/>
      <point x="1414" y="751" type="line"/>
      <point x="1414" y="632" type="line"/>
    </contour>
    <contour>
      <point x="95" y="965" type="line"/>
      <point x="95" y="1084" type="line"/>
      <point x="1437" y="1084" type="line"/>
      <point x="1437" y="965" type="line"/>
    </contour>
    <contour>
      <point x="923" y="-1" type="line"/>
      <point x="745" y="-1" type="line"/>
      <point x="1009" y="1446" type="line"/>
      <point x="1179" y="1446" type="line"/>
    </contour>
    <contour>
      <point x="449" y="-1" type="line"/>
      <point x="271" y="-1" type="line"/>
      <point x="535" y="1446" type="line"/>
      <point x="705" y="1446" type="line"/>
    </contour>
  </outline>
</glyph>
<glyph name="percent" format="1">
  <advance width="1930"/>
  <unicode hex="0025"/>
  <outline>
    <contour>
      <point x="1360" y="343" type="line" smooth="yes"/>
      <point x="1360" y="202"/>
      <point x="1377" y="97"/>
      <point x="1515" y="97" type="curve" smooth="yes"/>
      <point x="1653" y="97"/>
      <point x="1672" y="202"/>
      <point x="1672" y="343" type="curve" smooth="yes"/>
      <point x="1672" y="436" type="line" smooth="yes"/>
      <point x="1672" y="574"/>
      <point x="1659" y="668"/>
      <point x="1515" y="668" type="curve" smooth="yes"/>
      <point x="1372" y="668"/>
      <point x="1360" y="574"/>
      <point x="1360" y="438" type="curve" smooth="yes"/>
    </contour>
    <contour>
      <point x="1217" y="360" type="curve" smooth="yes"/>
      <point x="1217" y="413" type="line" smooth="yes"/>
      <point x="1217" y="646"/>
      <point x="1284" y="784"/>
      <point x="1515" y="784" type="curve" smooth="yes"/>
      <point x="1745" y="784"/>
      <point x="1815" y="647"/>
      <point x="1817" y="414" type="curve" smooth="yes"/>
      <point x="1817" y="360" type="line" smooth="yes"/>
      <point x="1817" y="131"/>
      <point x="1745" y="-19"/>
      <point x="1515" y="-19" type="curve" smooth="yes"/>
      <point x="1285" y="-19"/>
      <point x="1217" y="132"/>
    </contour>
    <contour>
      <point x="1152" y="1446" type="line"/>
      <point x="1301" y="1446" type="line"/>
      <point x="763" y="0" type="line"/>
      <point x="609" y="0" type="line"/>
    </contour>
    <contour>
      <point x="113" y="1037" type="curve" smooth="yes"/>
      <point x="113" y="1090" type="line" smooth="yes"/>
      <point x="113" y="1323"/>
      <point x="180" y="1461"/>
      <point x="411" y="1461" type="curve" smooth="yes"/>
      <point x="641" y="1461"/>
      <point x="711" y="1324"/>
      <point x="713" y="1091" type="curve" smooth="yes"/>
      <point x="713" y="1037" type="line" smooth="yes"/>
      <point x="713" y="808"/>
      <point x="641" y="658"/>
      <point x="411" y="658" type="curve" smooth="yes"/>
      <point x="181" y="658"/>
      <point x="113" y="809"/>
    </contour>
    <contour>
      <point x="256" y="1020" type="line" smooth="yes"/>
      <point x="256" y="879"/>
      <point x="273" y="774"/>
      <point x="411" y="774" type="curve" smooth="yes"/>
      <point x="549" y="774"/>
      <point x="568" y="879"/>
      <point x="568" y="1020" type="curve" smooth="yes"/>
      <point x="568" y="1113" type="line" smooth="yes"/>
      <point x="568" y="1251"/>
      <point x="555" y="1345"/>
      <point x="411" y="1345" type="curve" smooth="yes"/>
      <point x="268" y="1345"/>
      <point x="256" y="1251"/>
      <point x="256" y="1115" type="curve" smooth="yes"/>
    </contour>
  </outline>
</glyph>
<glyph name="asterisk" format="1">
  <advance width="990"/>
  <unicode hex="002A"/>
  <outline>
    <contour>
      <point x="827" y="1295" type="line"/>
      <point x="908" y="1134" type="line"/>
      <point x="518" y="977" type="line"/>
      <point x="471" y="1068" type="line"/>
    </contour>
    <contour>
      <point x="162" y="750" type="line"/>
      <point x="82" y="911" type="line"/>
      <point x="471" y="1068" type="line"/>
      <point x="518" y="977" type="line"/>
    </contour>
    <contour>
      <point x="897" y="875" type="line"/>
      <point x="802" y="722" type="line"/>
      <point x="468" y="979" type="line"/>
      <point x="521" y="1066" type="line"/>
    </contour>
    <contour>
      <point x="92" y="1170" type="line"/>
      <point x="187" y="1323" type="line"/>
      <point x="521" y="1066" type="line"/>
      <point x="468" y="979" type="line"/>
    </contour>
    <contour>
      <point x="584" y="599" type="line"/>
      <point x="406" y="599" type="line"/>
      <point x="444" y="1023" type="line"/>
      <point x="545" y="1023" type="line"/>
    </contour>
    <contour>
      <point x="406" y="1446" type="line"/>
      <point x="584" y="1446" type="line"/>
      <point x="545" y="1023" type="line"/>
      <point x="444" y="1023" type="line"/>
    </contour>
  </outline>
</glyph>
<glyph name="plus" format="1">
  <advance width="819"/>
  <unicode hex="002B"/>
  <outline>
    <contour>
      <point x="495" y="861" type="line"/>
      <point x="495" y="642" type="line"/>
      <point x="720" y="642" type="line"/>
      <point x="720" y="472" type="line"/>
      <point x="495" y="472" type="line"/>
      <point x="495" y="254" type="line"/>
      <point x="318" y="254" type="line"/>
      <point x="318" y="472" type="line"/>
      <point x="92" y="472" type="line"/>
      <point x="92" y="642" type="line"/>
      <point x="318" y="642" type="line"/>
      <point x="318" y="861" type="line"/>
    </contour>
  </outline>
</glyph>
<glyph name="hyphen" format="1">
  <advance width="635"/>
  <unicode hex="002D"/>
  <outline>
    <contour>
      <point x="117" y="603" type="line"/>
      <point x="517" y="603" type="line"/>
      <point x="517" y="398" type="line"/>
      <point x="117" y="398" type="line"/>
    </contour>
  </outline>
</glyph>
<glyph name="zero" format="1">
  <advance width="1336"/>
  <unicode hex="0030"/>
  <outline>
    <contour>
      <point x="677.0" y="-24.0" type="curve"/>
      <point x="1142.0" y="-24.0"/>
      <point x="1191" y="233"/>
      <point x="1191" y="530" type="curve" smooth="yes"/>
      <point x="1191" y="912" type="line" smooth="yes"/>
      <point x="1191" y="1218"/>
      <point x="1144.0" y="1483.0"/>
      <point x="677.0" y="1483.0" type="curve"/>
      <point x="192.0" y="1483.0"/>
      <point x="145" y="1231"/>
      <point x="145" y="925" type="curve" smooth="yes"/>
      <point x="145" y="516" type="line" smooth="yes"/>
      <point x="145" y="215"/>
      <point x="194.0" y="-24.0"/>
    </contour>
    <contour>
      <point x="677.0" y="126.0" type="curve" smooth="yes"/>
      <point x="421.0" y="126.0"/>
      <point x="347" y="229"/>
      <point x="347" y="485" type="curve" smooth="yes"/>
      <point x="347" y="962" type="line" smooth="yes"/>
      <point x="347" y="1219"/>
      <point x="423.0" y="1332.0"/>
      <point x="677.0" y="1332.0" type="curve" smooth="yes"/>
      <point x="933.0" y="1332.0"/>
      <point x="990" y="1219"/>
      <point x="990" y="962" type="curve" smooth="yes"/>
      <point x="990" y="485" type="line" smooth="yes"/>
      <point x="990" y="229"/>
      <point x="935.0" y="126.0"/>
    </contour>
  </outline>
</glyph>
<glyph name="one" format="1">
  <advance width="545"/>
  <unicode hex="0031"/>
  <outline>
    <contour>
      <point x="238" y="1459" type="curve"/>
      <point x="451" y="1459" type="line"/>
      <point x="451" y="0" type="line"/>
      <point x="177" y="0" type="line"/>
      <point x="177" y="1089" type="line"/>
      <point x="32" y="1089" type="line"/>
      <point x="32" y="1294" type="line"/>
      <point x="121" y="1340"/>
      <point x="192" y="1356"/>
    </contour>
  </outline>
</glyph>
<glyph name="seven" format="1">
  <advance width="824"/>
  <unicode hex="0037"/>
  <outline>
    <contour>
      <point x="28" y="1459" type="line"/>
      <point x="795" y="1459" type="line"/>
      <point x="795" y="1313" type="line"/>
      <point x="391" y="0" type="line"/>
      <point x="119" y="0" type="line"/>
      <point x="477" y="1231" type="line"/>
      <point x="28" y="1231" type="line"/>
    </contour>
  </outline>
</glyph>
<glyph name="less" format="1">
  <advance width="990"/>
  <unicode hex="003C"/>
  <outline>
    <contour>
      <point x="866" y="810" type="line"/>
      <point x="292" y="538" type="line"/>
      <point x="466" y="467"/>
      <point x="765" y="332"/>
      <point x="866" y="262" type="curve"/>
      <point x="866" y="45" type="line"/>
      <point x="97" y="436" type="line"/>
      <point x="97" y="637" type="line"/>
      <point x="866" y="1029" type="line"/>
    </contour>
  </outline>
</glyph>
<glyph name="A" format="1">
  <advance width="1330"/>
  <unicode hex="0041"/>
  <outline>
    <contour>
      <point x="212" y="408" type="line"/>
      <point x="970" y="408" type="line"/>
      <point x="970" y="273" type="line"/>
      <point x="212" y="273" type="line"/>
    </contour>
    <contour>
      <point x="1271" y="-1" type="line"/>
      <point x="1064" y="-1" type="line"/>
      <point x="666" y="1164" type="line"/>
      <point x="268" y="-1" type="line"/>
      <point x="59" y="-1" type="line"/>
      <point x="579" y="1458" type="line"/>
      <point x="756" y="1458" type="line"/>
    </contour>
  </outline>
</glyph>
<glyph name="B" format="1">
  <advance width="1399"/>
  <unicode hex="0042"/>
  <outline>
    <contour>
      <point x="749" y="-1" type="line" smooth="yes"/>
      <point x="1116" y="-1"/>
      <point x="1283" y="135"/>
      <point x="1283" y="448" type="curve"/>
      <point x="1283" y="572"/>
      <point x="1217" y="731"/>
      <point x="1066" y="769" type="curve"/>
      <point x="1180" y="809"/>
      <point x="1229" y="922"/>
      <point x="1229" y="1049" type="curve"/>
      <point x="1229" y="1320"/>
      <point x="1134" y="1446"/>
      <point x="733" y="1446" type="curve" smooth="yes"/>
      <point x="174" y="1446" type="line"/>
      <point x="174" y="-1" type="line"/>
    </contour>
    <contour>
      <point x="376" y="149" type="line"/>
      <point x="376" y="1295" type="line"/>
      <point x="713" y="1295" type="line" smooth="yes"/>
      <point x="957" y="1295"/>
      <point x="1028" y="1256"/>
      <point x="1028" y="1047" type="curve"/>
      <point x="1028" y="917"/>
      <point x="980" y="833"/>
      <point x="798" y="833" type="curve" smooth="yes"/>
      <point x="348" y="833" type="line"/>
      <point x="348" y="696" type="line"/>
      <point x="806" y="696" type="line" smooth="yes"/>
      <point x="1027" y="696"/>
      <point x="1082" y="578"/>
      <point x="1082" y="446" type="curve"/>
      <point x="1082" y="180"/>
      <point x="953" y="149"/>
      <point x="729" y="149" type="curve" smooth="yes"/>
    </contour>
  </outline>
</glyph>
<glyph name="C" format="1">
  <advance width="1415"/>
  <unicode hex="0043"/>
  <outline>
    <contour>
      <point x="1279" y="901" type="line"/>
      <point x="1279" y="1012" type="line" smooth="yes"/>
      <point x="1279" y="1288"/>
      <point x="1176" y="1483"/>
      <point x="775" y="1483" type="curve" smooth="yes"/>
      <point x="631" y="1483" type="line" smooth="yes"/>
      <point x="226" y="1483"/>
      <point x="123" y="1301"/>
      <point x="123" y="1025" type="curve" smooth="yes"/>
      <point x="123" y="426" type="line" smooth="yes"/>
      <point x="123" y="155"/>
      <point x="228" y="-24"/>
      <point x="632" y="-24" type="curve" smooth="yes"/>
      <point x="777" y="-24" type="line" smooth="yes"/>
      <point x="1174" y="-24"/>
      <point x="1279" y="173"/>
      <point x="1279" y="440" type="curve" smooth="yes"/>
      <point x="1279" y="559" type="line"/>
      <point x="1078" y="559" type="line"/>
      <point x="1078" y="395" type="line" smooth="yes"/>
      <point x="1078" y="129"/>
      <point x="920" y="126"/>
      <point x="712" y="126" type="curve" smooth="yes"/>
      <point x="506" y="126"/>
      <point x="325" y="129"/>
      <point x="325" y="395" type="curve" smooth="yes"/>
      <point x="325" y="1062" type="line" smooth="yes"/>
      <point x="325" y="1329"/>
      <point x="508" y="1332"/>
      <point x="712" y="1332" type="curve" smooth="yes"/>
      <point x="918" y="1332"/>
      <point x="1078" y="1329"/>
      <point x="1078" y="1062" type="curve" smooth="yes"/>
      <point x="1078" y="901" type="line"/>
    </contour>
  </outline>
</glyph>
<glyph name="D" format="1">
  <advance width="1439"/>
  <unicode hex="0044"/>
  <outline>
    <contour>
      <point x="171" y="0" type="line"/>
      <point x="749" y="0" type="line" smooth="yes"/>
      <point x="1116" y="0"/>
      <point x="1295" y="169"/>
      <point x="1295" y="482" type="curve" smooth="yes"/>
      <point x="1295" y="959" type="line" smooth="yes"/>
      <point x="1295" y="1235"/>
      <point x="1148" y="1446"/>
      <point x="747" y="1446" type="curve" smooth="yes"/>
      <point x="171" y="1446" type="line"/>
    </contour>
    <contour>
      <point x="729" y="150" type="curve" smooth="yes"/>
      <point x="373" y="150" type="line"/>
      <point x="373" y="1295" type="line"/>
      <point x="729" y="1295" type="line" smooth="yes"/>
      <point x="935" y="1295"/>
      <point x="1094" y="1238"/>
      <point x="1094" y="971" type="curve" smooth="yes"/>
      <point x="1094" y="462" type="line" smooth="yes"/>
      <point x="1094" y="196"/>
      <point x="937" y="150"/>
    </contour>
  </outline>
</glyph>
<glyph name="G" format="1">
  <advance width="1412"/>
  <unicode hex="0047"/>
  <outline>
    <contour>
      <point x="1214" y="0" type="line"/>
      <point x="1285" y="0" type="line"/>
      <point x="1285" y="735" type="line"/>
      <point x="845" y="735" type="line"/>
      <point x="845" y="588" type="line"/>
      <point x="1122" y="588" type="line"/>
    </contour>
    <component base="C"/>
  </outline>
</glyph>
<glyph name="I" format="1">
  <advance width="598"/>
  <unicode hex="0049"/>
  <outline>
    <contour>
      <point x="199" y="1446" type="line"/>
      <point x="400" y="1446" type="line"/>
      <point x="400" y="0" type="line"/>
      <point x="199" y="0" type="line"/>
    </contour>
  </outline>
</glyph>
<glyph name="J" format="1">
  <advance width="805"/>
  <unicode hex="004A"/>
  <outline>
    <contour>
      <point x="60" y="0" type="line"/>
      <point x="60" y="152" type="line"/>
      <point x="346" y="152"/>
      <point x="430" y="237"/>
      <point x="430" y="451" type="curve" smooth="yes"/>
      <point x="430" y="1446" type="line"/>
      <point x="631" y="1446" type="line"/>
      <point x="631" y="469" type="line" smooth="yes"/>
      <point x="631" y="147"/>
      <point x="459" y="0"/>
      <point x="158" y="0" type="curve" smooth="yes"/>
    </contour>
  </outline>
</glyph>
<glyph name="M" format="1">
  <advance width="1672"/>
  <unicode hex="004D"/>
  <outline>
    <contour>
      <point x="174" y="0" type="line"/>
      <point x="174" y="1446" type="line"/>
      <point x="359" y="1446" type="line"/>
      <point x="837" y="638" type="line"/>
      <point x="1320" y="1446" type="line"/>
      <point x="1498" y="1446" type="line"/>
      <point x="1498" y="0" type="line"/>
      <point x="1308" y="0" type="line"/>
      <point x="1308" y="1121" type="line"/>
      <point x="912" y="458" type="line"/>
      <point x="763" y="458" type="line"/>
      <point x="366" y="1117" type="line"/>
      <point x="366" y="0" type="line"/>
    </contour>
  </outline>
</glyph>
<glyph name="N" format="1">
  <advance width="1522"/>
  <unicode hex="004E"/>
  <outline>
    <contour>
      <point x="174" y="0" type="line"/>
      <point x="174" y="1446" type="line"/>
      <point x="317" y="1446" type="line"/>
      <point x="1165" y="281" type="line"/>
      <point x="1165" y="1446" type="line"/>
      <point x="1348" y="1446" type="line"/>
      <point x="1348" y="0" type="line"/>
      <point x="1179" y="0" type="line"/>
      <point x="357" y="1115" type="line"/>
      <point x="357" y="0" type="line"/>
    </contour>
  </outline>
</glyph>
<glyph name="O" format="1">
  <advance width="1456"/>
  <unicode hex="004F"/>
  <outline>
    <contour>
      <point x="737" y="-24" type="curve"/>
      <point x="1202" y="-24"/>
      <point x="1311" y="203"/>
      <point x="1311" y="500" type="curve" smooth="yes"/>
      <point x="1311" y="942" type="line" smooth="yes"/>
      <point x="1311" y="1248"/>
      <point x="1204" y="1483"/>
      <point x="737" y="1483" type="curve"/>
      <point x="252" y="1483"/>
      <point x="145" y="1261"/>
      <point x="145" y="955" type="curve" smooth="yes"/>
      <point x="145" y="486" type="line" smooth="yes"/>
      <point x="145" y="185"/>
      <point x="254" y="-24"/>
    </contour>
    <contour>
      <point x="737" y="126" type="curve" smooth="yes"/>
      <point x="481" y="126"/>
      <point x="347" y="199"/>
      <point x="347" y="455" type="curve" smooth="yes"/>
      <point x="347" y="992" type="line" smooth="yes"/>
      <point x="347" y="1249"/>
      <point x="483" y="1332"/>
      <point x="737" y="1332" type="curve" smooth="yes"/>
      <point x="993" y="1332"/>
      <point x="1110" y="1249"/>
      <point x="1110" y="992" type="curve" smooth="yes"/>
      <point x="1110" y="455" type="line" smooth="yes"/>
      <point x="1110" y="199"/>
      <point x="995" y="126"/>
    </contour>
  </outline>
</glyph>
<glyph name="Q" format="1">
  <advance width="1444"/>
  <unicode hex="0051"/>
  <outline>
    <contour>
      <point x="667" y="-10" type="line"/>
      <point x="916" y="-444" type="line"/>
      <point x="1057" y="-368" type="line"/>
      <point x="820" y="35" type="line"/>
    </contour>
    <component base="O"/>
  </outline>
</glyph>
<glyph name="R" format="1">
  <advance width="1337"/>
  <unicode hex="0052"/>
  <outline>
    <contour>
      <point x="742" y="636" type="line"/>
      <point x="1042" y="0" type="line"/>
      <point x="1241" y="0" type="line"/>
      <point x="919" y="692" type="line"/>
    </contour>
    <contour>
      <point x="171" y="0" type="line"/>
      <point x="373" y="0" type="line"/>
      <point x="373" y="566" type="line"/>
      <point x="772" y="566" type="line" smooth="yes"/>
      <point x="1018" y="566"/>
      <point x="1188" y="657"/>
      <point x="1188" y="969" type="curve" smooth="yes"/>
      <point x="1188" y="1037" type="line" smooth="yes"/>
      <point x="1182" y="1333"/>
      <point x="1027" y="1459"/>
      <point x="784" y="1459" type="curve" smooth="yes"/>
      <point x="171" y="1459" type="line"/>
    </contour>
    <contour>
      <point x="373" y="719" type="line"/>
      <point x="373" y="1306" type="line"/>
      <point x="790" y="1306" type="line" smooth="yes"/>
      <point x="971" y="1306"/>
      <point x="986" y="1131"/>
      <point x="986" y="1031" type="curve" smooth="yes"/>
      <point x="986" y="947" type="line"/>
      <point x="985" y="840"/>
      <point x="951" y="719"/>
      <point x="776" y="719" type="curve" smooth="yes"/>
    </contour>
  </outline>
</glyph>
<glyph name="S" format="1">
  <advance width="1227.6875"/>
  <unicode hex="0053"/>
  <outline>
    <contour>
      <point x="114" y="209" type="curve"/>
      <point x="206" y="323" type="line"/>
      <point x="288" y="237"/>
      <point x="434" y="130"/>
      <point x="634" y="130" type="curve" smooth="yes"/>
      <point x="818" y="130"/>
      <point x="931.0" y="196.0"/>
      <point x="947.0" y="352.0" type="curve" smooth="yes"/>
      <point x="956.0" y="476.0"/>
      <point x="902" y="550"/>
      <point x="741" y="620" type="curve" smooth="yes"/>
      <point x="454" y="744" type="line" smooth="yes"/>
      <point x="281" y="819"/>
      <point x="133.0" y="900.0"/>
      <point x="140.0" y="1118.0" type="curve" smooth="yes"/>
      <point x="148.0" y="1379.0"/>
      <point x="372" y="1481"/>
      <point x="622" y="1481" type="curve" smooth="yes"/>
      <point x="889" y="1481"/>
      <point x="1045" y="1367"/>
      <point x="1110" y="1280" type="curve"/>
      <point x="1022" y="1164" type="line"/>
      <point x="947" y="1255"/>
      <point x="821" y="1328"/>
      <point x="634" y="1332" type="curve" smooth="yes"/>
      <point x="435" y="1334"/>
      <point x="338" y="1256"/>
      <point x="329" y="1143" type="curve" smooth="yes"/>
      <point x="321" y="1046"/>
      <point x="351" y="975"/>
      <point x="507" y="908" type="curve" smooth="yes"/>
      <point x="811" y="777" type="line" smooth="yes"/>
      <point x="983" y="703"/>
      <point x="1135.0" y="617.0"/>
      <point x="1130.0" y="379.0" type="curve" smooth="yes"/>
      <point x="1126.0" y="122.0"/>
      <point x="931" y="-27"/>
      <point x="627" y="-23" type="curve" smooth="yes"/>
      <point x="418" y="-18"/>
      <point x="219" y="72"/>
    </contour>
  </outline>
</glyph>
<glyph name="T" format="1">
  <advance width="1063"/>
  <unicode hex="0054"/>
  <outline>
    <contour>
      <point x="44" y="1459" type="line"/>
      <point x="1019" y="1459" type="line"/>
      <point x="1019" y="1294" type="line"/>
      <point x="632" y="1294" type="line"/>
      <point x="632" y="0" type="line"/>
      <point x="431" y="0" type="line"/>
      <point x="431" y="1294" type="line"/>
      <point x="44" y="1294" type="line"/>
    </contour>
  </outline>
</glyph>
<glyph name="V" format="1">
  <advance width="1269"/>
  <unicode hex="0056"/>
  <outline>
    <contour>
      <point x="51" y="1459" type="line"/>
      <point x="258" y="1459" type="line"/>
      <point x="656" y="294" type="line"/>
      <point x="1054" y="1459" type="line"/>
      <point x="1263" y="1459" type="line"/>
      <point x="743" y="0" type="line"/>
      <point x="566" y="0" type="line"/>
    </contour>
  </outline>
</glyph>
<glyph name="Z" format="1">
  <advance width="955"/>
  <unicode hex="005A"/>
  <outline>
    <contour>
      <point x="105" y="1459" type="line"/>
      <point x="888" y="1459" type="line"/>
      <point x="888" y="1279" type="line"/>
      <point x="402" y="195" type="line"/>
      <point x="888" y="195" type="line"/>
      <point x="888" y="0" type="line"/>
      <point x="62" y="0" type="line"/>
      <point x="62" y="180" type="line"/>
      <point x="546" y="1265" type="line"/>
      <point x="105" y="1265" type="line"/>
    </contour>
  </outline>
</glyph>
<glyph name="grave" format="1">
  <advance width="616"/>
  <unicode hex="0060"/>
  <outline>
    <contour>
      <point x="115" y="1474" type="line"/>
      <point x="380" y="1474" type="line"/>
      <point x="485" y="1155" type="line"/>
      <point x="322" y="1155" type="line"/>
    </contour>
  </outline>
</glyph>
<glyph name="a" format="1">
  <advance width="1086"/>
  <unicode hex="0061"/>
  <outline>
    <contour>
      <point x="945" y="815" type="curve" smooth="yes"/>
      <point x="945" y="0" type="line"/>
      <point x="812" y="0" type="line"/>
      <point x="777" y="112" type="line"/>
      <point x="708" y="32"/>
      <point x="597" y="-20"/>
      <point x="450" y="-20" type="curve" smooth="yes"/>
      <point x="279" y="-20"/>
      <point x="122" y="41"/>
      <point x="114" y="269" type="curve" smooth="yes"/>
      <point x="109" y="405"/>
      <point x="170" y="541"/>
      <point x="517" y="562" type="curve" smooth="yes"/>
      <point x="757" y="577" type="line"/>
      <point x="757" y="816" type="line" smooth="yes"/>
      <point x="757" y="904"/>
      <point x="730" y="961"/>
      <point x="538" y="961" type="curve" smooth="yes"/>
      <point x="325" y="961"/>
      <point x="323" y="884"/>
      <point x="323" y="812" type="curve" smooth="yes"/>
      <point x="323" y="711" type="line"/>
      <point x="142" y="711" type="line"/>
      <point x="142" y="798" type="line" smooth="yes"/>
      <point x="142" y="1012"/>
      <point x="263" y="1104"/>
      <point x="541" y="1104" type="curve" smooth="yes"/>
      <point x="849" y="1104"/>
      <point x="945" y="984"/>
    </contour>
    <contour>
      <point x="757" y="463" type="line"/>
      <point x="544" y="448" type="line" smooth="yes"/>
      <point x="314" y="432"/>
      <point x="291" y="347"/>
      <point x="300" y="251" type="curve" smooth="yes"/>
      <point x="310" y="149"/>
      <point x="364" y="113"/>
      <point x="481" y="113" type="curve" smooth="yes"/>
      <point x="625" y="113"/>
      <point x="741" y="208"/>
      <point x="757" y="219" type="curve"/>
    </contour>
  </outline>
</glyph>
<glyph name="b" format="1">
  <advance width="1137.0"/>
  <unicode hex="0062"/>
  <outline>
    <contour>
      <point x="284.0" y="65.0" type="curve"/>
      <point x="284.0" y="218.0" type="line"/>
      <point x="302.0" y="208.0"/>
      <point x="387.0" y="124.0"/>
      <point x="554.0" y="124.0" type="curve" smooth="yes"/>
      <point x="702.0" y="124.0"/>
      <point x="823.0" y="202.0"/>
      <point x="823.0" y="335.0" type="curve" smooth="yes"/>
      <point x="823.0" y="763.0" type="line" smooth="yes"/>
      <point x="823.0" y="893.0"/>
      <point x="715.0" y="959.0"/>
      <point x="577.0" y="959.0" type="curve" smooth="yes"/>
      <point x="437.0" y="959.0"/>
      <point x="340.0" y="865.0"/>
      <point x="330.0" y="844.0" type="curve"/>
      <point x="330.0" y="993.0" type="line"/>
      <point x="380.0" y="1049.0"/>
      <point x="475.0" y="1104.0"/>
      <point x="606.0" y="1104.0" type="curve" smooth="yes"/>
      <point x="877.0" y="1104.0"/>
      <point x="1011.0" y="958.0"/>
      <point x="1011.0" y="749.0" type="curve" smooth="yes"/>
      <point x="1011.0" y="356.0" type="line" smooth="yes"/>
      <point x="1011.0" y="138.0"/>
      <point x="858.0" y="-20.0"/>
      <point x="582.0" y="-20.0" type="curve" smooth="yes"/>
      <point x="414.0" y="-20.0"/>
      <point x="324.0" y="45.0"/>
    </contour>
    <contour>
      <point x="332" y="0" type="line"/>
      <point x="144" y="0" type="line"/>
      <point x="144" y="1459" type="line"/>
      <point x="332" y="1459" type="line"/>
    </contour>
  </outline>
</glyph>
<glyph name="c" format="1">
  <advance width="1098"/>
  <unicode hex="0063"/>
  <outline>
    <contour>
      <point x="809" y="685" type="line"/>
      <point x="809" y="792" type="line" smooth="yes"/>
      <point x="809" y="920"/>
      <point x="710" y="959"/>
      <point x="565" y="959" type="curve" smooth="yes"/>
      <point x="419" y="959"/>
      <point x="315" y="908"/>
      <point x="315" y="774" type="curve" smooth="yes"/>
      <point x="315" y="315" type="line" smooth="yes"/>
      <point x="315" y="170"/>
      <point x="418" y="124"/>
      <point x="565" y="124" type="curve" smooth="yes"/>
      <point x="704" y="124"/>
      <point x="809" y="156"/>
      <point x="809" y="289" type="curve" smooth="yes"/>
      <point x="809" y="382" type="line"/>
      <point x="991" y="382" type="line"/>
      <point x="991" y="309" type="line" smooth="yes"/>
      <point x="991" y="110"/>
      <point x="894" y="-20"/>
      <point x="565" y="-20" type="curve" smooth="yes"/>
      <point x="249" y="-20"/>
      <point x="128" y="121"/>
      <point x="128" y="321" type="curve" smooth="yes"/>
      <point x="128" y="768" type="line" smooth="yes"/>
      <point x="128" y="973"/>
      <point x="302" y="1104"/>
      <point x="565" y="1104" type="curve" smooth="yes"/>
      <point x="828" y="1104"/>
      <point x="991" y="989"/>
      <point x="991" y="771" type="curve" smooth="yes"/>
      <point x="991" y="685" type="line"/>
    </contour>
  </outline>
</glyph>
<glyph name="d" format="1">
  <advance width="1140"/>
  <unicode hex="0064"/>
  <outline>
    <contour>
      <point x="853" y="1010" type="curve"/>
      <point x="847" y="968"/>
      <point x="862" y="825"/>
      <point x="850" y="827" type="curve"/>
      <point x="842" y="887"/>
      <point x="750" y="960"/>
      <point x="583" y="960" type="curve" smooth="yes"/>
      <point x="435" y="960"/>
      <point x="316" y="902"/>
      <point x="316" y="769" type="curve" smooth="yes"/>
      <point x="316" y="321" type="line" smooth="yes"/>
      <point x="316" y="191"/>
      <point x="422.0" y="125.0"/>
      <point x="560.0" y="125.0" type="curve" smooth="yes"/>
      <point x="700.0" y="125.0"/>
      <point x="797.0" y="189.0"/>
      <point x="807.0" y="210.0" type="curve"/>
      <point x="807.0" y="61.0" type="line"/>
      <point x="757.0" y="5.0"/>
      <point x="621.0" y="-20.0"/>
      <point x="548.0" y="-20.0" type="curve" smooth="yes"/>
      <point x="277.0" y="-20.0"/>
      <point x="128" y="126"/>
      <point x="128" y="335" type="curve" smooth="yes"/>
      <point x="128" y="748" type="line" smooth="yes"/>
      <point x="128" y="966"/>
      <point x="279" y="1104"/>
      <point x="555" y="1104" type="curve" smooth="yes"/>
      <point x="663" y="1104"/>
      <point x="823" y="1061"/>
    </contour>
    <contour>
      <point x="805.0" y="1459.0" type="line"/>
      <point x="993.0" y="1459.0" type="line"/>
      <point x="993.0" y="0.0" type="line"/>
      <point x="805.0" y="0.0" type="line"/>
    </contour>
  </outline>
</glyph>
<glyph name="f" format="1">
  <advance width="651"/>
  <unicode hex="0066"/>
  <outline>
    <contour>
      <point x="459" y="1417" type="curve" smooth="yes"/>
      <point x="618" y="1417" type="line"/>
      <point x="618" y="1281" type="line"/>
      <point x="577" y="1281" type="line" smooth="yes"/>
      <point x="406" y="1278"/>
      <point x="406" y="1253"/>
      <point x="406" y="1175" type="curve" smooth="yes"/>
      <point x="406" y="1084" type="line"/>
      <point x="621" y="1084" type="line"/>
      <point x="621" y="965" type="line"/>
      <point x="406" y="965" type="line"/>
      <point x="406" y="-1" type="line"/>
      <point x="218" y="-1" type="line"/>
      <point x="218" y="965" type="line"/>
      <point x="56" y="965" type="line"/>
      <point x="56" y="1084" type="line"/>
      <point x="218" y="1084" type="line"/>
      <point x="218" y="1113" type="line" smooth="yes"/>
      <point x="218" y="1315"/>
      <point x="241" y="1417"/>
    </contour>
  </outline>
</glyph>
<glyph name="g" format="1">
  <advance width="1139"/>
  <unicode hex="0067"/>
  <outline>
    <contour>
      <point x="316" y="902"/>
      <point x="415" y="960"/>
      <point x="563" y="960" type="curve" smooth="yes"/>
      <point x="730" y="960"/>
      <point x="807" y="892"/>
      <point x="807" y="832" type="curve" smooth="yes"/>
      <point x="807" y="248" type="line"/>
      <point x="777" y="223"/>
      <point x="700" y="164"/>
      <point x="560" y="164" type="curve" smooth="yes"/>
      <point x="422" y="164"/>
      <point x="316" y="204"/>
      <point x="316" y="334" type="curve" smooth="yes"/>
      <point x="316" y="769" type="line" smooth="yes"/>
    </contour>
    <contour>
      <point x="868" y="-354"/>
      <point x="995" y="-188"/>
      <point x="995" y="35" type="curve" smooth="yes"/>
      <point x="995.0" y="1084.0" type="line"/>
      <point x="807.0" y="1084.0" type="line"/>
      <point x="807.0" y="1001.0" type="line"/>
      <point x="777.0" y="1052.0"/>
      <point x="643.0" y="1104.0"/>
      <point x="535.0" y="1104.0" type="curve" smooth="yes"/>
      <point x="259.0" y="1104.0"/>
      <point x="128.0" y="966.0"/>
      <point x="128.0" y="748.0" type="curve" smooth="yes"/>
      <point x="128.0" y="364.0" type="line" smooth="yes"/>
      <point x="128.0" y="139.0"/>
      <point x="290" y="19"/>
      <point x="561" y="19" type="curve" smooth="yes"/>
      <point x="634" y="19"/>
      <point x="747" y="49"/>
      <point x="807" y="106" type="curve"/>
      <point x="809" y="-20" type="line" smooth="yes"/>
      <point x="810" y="-99"/>
      <point x="774" y="-211"/>
      <point x="582" y="-211" type="curve" smooth="yes"/>
      <point x="449" y="-211"/>
      <point x="358" y="-161"/>
      <point x="319" y="-134" type="curve"/>
      <point x="257" y="-274" type="line"/>
      <point x="355" y="-328"/>
      <point x="445" y="-354"/>
      <point x="588" y="-354" type="curve" smooth="yes"/>
    </contour>
  </outline>
</glyph>
<glyph name="h" format="1">
  <advance width="1143"/>
  <unicode hex="0068"/>
  <outline>
    <contour>
      <point x="144.0" y="0.0" type="line"/>
      <point x="144.0" y="1459" type="line"/>
      <point x="332.0" y="1459" type="line"/>
      <point x="332.0" y="978.0" type="line"/>
      <point x="394.0" y="1052.0"/>
      <point x="490" y="1104"/>
      <point x="644" y="1104" type="curve" smooth="yes"/>
      <point x="905" y="1104"/>
      <point x="1005" y="959"/>
      <point x="1005" y="787" type="curve" smooth="yes"/>
      <point x="1005" y="0" type="line"/>
      <point x="817" y="0" type="line"/>
      <point x="817" y="800" type="line" smooth="yes"/>
      <point x="817" y="907"/>
      <point x="727" y="959"/>
      <point x="596" y="959" type="curve" smooth="yes"/>
      <point x="412" y="959"/>
      <point x="332.0" y="876.0"/>
      <point x="332.0" y="772.0" type="curve" smooth="yes"/>
      <point x="332.0" y="0.0" type="line"/>
    </contour>
  </outline>
</glyph>
<glyph name="i" format="1">
  <advance width="510"/>
  <unicode hex="0069"/>
  <outline>
    <contour>
      <point x="152" y="1446" type="line"/>
      <point x="357" y="1446" type="line"/>
      <point x="357" y="1240" type="line"/>
      <point x="152" y="1240" type="line"/>
    </contour>
    <contour>
      <point x="163" y="1084" type="line"/>
      <point x="350" y="1084" type="line"/>
      <point x="350" y="0" type="line"/>
      <point x="163" y="0" type="line"/>
    </contour>
  </outline>
</glyph>
<glyph name="l" format="1">
  <advance width="665"/>
  <unicode hex="006C"/>
  <outline>
    <contour>
      <point x="164" y="335" type="curve" smooth="yes"/>
      <point x="164" y="1459" type="line"/>
      <point x="352" y="1459" type="line"/>
      <point x="352" y="333" type="line" smooth="yes"/>
      <point x="352" y="187"/>
      <point x="381" y="148"/>
      <point x="568" y="148" type="curve" smooth="yes"/>
      <point x="613" y="148" type="line"/>
      <point x="613" y="0" type="line"/>
      <point x="491" y="0" type="line" smooth="yes"/>
      <point x="259" y="0"/>
      <point x="164" y="121"/>
    </contour>
  </outline>
</glyph>
<glyph name="m" format="1">
  <advance width="1786"/>
  <unicode hex="006D"/>
  <outline>
    <contour>
      <point x="972" y="987" type="line" smooth="yes"/>
      <point x="1039" y="1056"/>
      <point x="1140" y="1104"/>
      <point x="1294" y="1104" type="curve" smooth="yes"/>
      <point x="1555" y="1104"/>
      <point x="1648" y="959"/>
      <point x="1648" y="787" type="curve" smooth="yes"/>
      <point x="1648" y="0" type="line"/>
      <point x="1460" y="0" type="line"/>
      <point x="1460" y="800" type="line" smooth="yes"/>
      <point x="1460" y="907"/>
      <point x="1377" y="959"/>
      <point x="1246" y="959" type="curve" smooth="yes"/>
      <point x="1062" y="959"/>
      <point x="990" y="876"/>
      <point x="990" y="772" type="curve"/>
      <point x="914" y="928" type="line"/>
    </contour>
    <contour>
      <point x="144.0" y="0.0" type="line"/>
      <point x="144.0" y="1084.0" type="line"/>
      <point x="332.0" y="1084.0" type="line"/>
      <point x="332.0" y="978.0" type="line"/>
      <point x="394.0" y="1052.0"/>
      <point x="482" y="1104"/>
      <point x="636" y="1104" type="curve" smooth="yes"/>
      <point x="897" y="1104"/>
      <point x="990" y="959"/>
      <point x="990" y="787" type="curve"/>
      <point x="990" y="0" type="line"/>
      <point x="802" y="0" type="line"/>
      <point x="802" y="800" type="line" smooth="yes"/>
      <point x="802" y="907"/>
      <point x="719" y="959"/>
      <point x="588" y="959" type="curve" smooth="yes"/>
      <point x="404" y="959"/>
      <point x="332.0" y="876.0"/>
      <point x="332.0" y="772.0" type="curve" smooth="yes"/>
      <point x="332.0" y="0.0" type="line"/>
    </contour>
  </outline>
</glyph>
<glyph name="n" format="1">
  <advance width="1138"/>
  <unicode hex="006E"/>
  <outline>
    <contour>
      <point x="144" y="0" type="line"/>
      <point x="144" y="1084" type="line"/>
      <point x="332" y="1084" type="line"/>
      <point x="332" y="978" type="line"/>
      <point x="394" y="1052"/>
      <point x="488" y="1104"/>
      <point x="642" y="1104" type="curve" smooth="yes"/>
      <point x="903" y="1104"/>
      <point x="1000" y="959"/>
      <point x="1000" y="787" type="curve" smooth="yes"/>
      <point x="1000" y="0" type="line"/>
      <point x="812" y="0" type="line"/>
      <point x="812" y="800" type="line" smooth="yes"/>
      <point x="812" y="907"/>
      <point x="725" y="959"/>
      <point x="594" y="959" type="curve" smooth="yes"/>
      <point x="410" y="959"/>
      <point x="332" y="876"/>
      <point x="332" y="772" type="curve" smooth="yes"/>
      <point x="332" y="0" type="line"/>
    </contour>
  </outline>
</glyph>
<glyph name="o" format="1">
  <advance width="1123"/>
  <unicode hex="006F"/>
  <outline>
    <contour>
      <point x="807" y="780" type="line" smooth="yes"/>
      <point x="807" y="908"/>
      <point x="706" y="959"/>
      <point x="561" y="959" type="curve" smooth="yes"/>
      <point x="422" y="959"/>
      <point x="315" y="914"/>
      <point x="315" y="780" type="curve" smooth="yes"/>
      <point x="315" y="308" type="line" smooth="yes"/>
      <point x="315" y="174"/>
      <point x="414" y="124"/>
      <point x="561" y="124" type="curve" smooth="yes"/>
      <point x="700" y="124"/>
      <point x="807" y="175"/>
      <point x="807" y="308" type="curve" smooth="yes"/>
    </contour>
    <contour>
      <point x="995" y="764" type="curve" smooth="yes"/>
      <point x="995" y="324" type="line" smooth="yes"/>
      <point x="995" y="125"/>
      <point x="890" y="-20"/>
      <point x="561" y="-20" type="curve" smooth="yes"/>
      <point x="245" y="-20"/>
      <point x="128" y="124"/>
      <point x="128" y="324" type="curve" smooth="yes"/>
      <point x="128" y="764" type="line" smooth="yes"/>
      <point x="128" y="969"/>
      <point x="298" y="1104"/>
      <point x="561" y="1104" type="curve" smooth="yes"/>
      <point x="824" y="1104"/>
      <point x="995" y="969"/>
    </contour>
  </outline>
</glyph>
<glyph name="p" format="1">
  <advance width="1139"/>
  <unicode hex="0070"/>
  <outline>
    <contour>
      <point x="284" y="65" type="curve"/>
      <point x="284" y="218" type="line"/>
      <point x="302" y="208"/>
      <point x="387" y="124"/>
      <point x="554" y="124" type="curve" smooth="yes"/>
      <point x="702" y="124"/>
      <point x="823" y="202"/>
      <point x="823" y="335" type="curve" smooth="yes"/>
      <point x="823" y="763" type="line" smooth="yes"/>
      <point x="823" y="893"/>
      <point x="715" y="959"/>
      <point x="577" y="959" type="curve" smooth="yes"/>
      <point x="437" y="959"/>
      <point x="340" y="865"/>
      <point x="330" y="844" type="curve"/>
      <point x="330" y="993" type="line"/>
      <point x="380" y="1049"/>
      <point x="475" y="1104"/>
      <point x="606" y="1104" type="curve" smooth="yes"/>
      <point x="877" y="1104"/>
      <point x="1011" y="958"/>
      <point x="1011" y="749" type="curve" smooth="yes"/>
      <point x="1011" y="356" type="line" smooth="yes"/>
      <point x="1011" y="138"/>
      <point x="858" y="-20"/>
      <point x="582" y="-20" type="curve" smooth="yes"/>
      <point x="414" y="-20"/>
      <point x="324" y="45"/>
    </contour>
    <contour>
      <point x="332" y="-375" type="line"/>
      <point x="144" y="-375" type="line"/>
      <point x="144" y="1084" type="line"/>
      <point x="332" y="1084" type="line"/>
    </contour>
  </outline>
</glyph>
<glyph name="r" format="1">
  <advance width="689"/>
  <unicode hex="0072"/>
  <outline>
    <contour>
      <point x="150" y="0" type="line"/>
      <point x="150" y="1037" type="line"/>
      <point x="338" y="1037" type="line"/>
      <point x="338" y="895" type="line"/>
      <point x="389" y="974"/>
      <point x="558" y="1066"/>
      <point x="648" y="1053" type="curve"/>
      <point x="642" y="888" type="line"/>
      <point x="523" y="878"/>
      <point x="368" y="837"/>
      <point x="338" y="754" type="curve"/>
      <point x="338" y="0" type="line"/>
    </contour>
  </outline>
</glyph>
<glyph name="s" format="1">
  <advance width="908.0"/>
  <unicode hex="0073"/>
  <outline>
    <contour>
      <point x="92.0" y="153.0" type="curve"/>
      <point x="185.0" y="265" type="line"/>
      <point x="228.0" y="217"/>
      <point x="315.0" y="131.0"/>
      <point x="459.0" y="128.0" type="curve" smooth="yes"/>
      <point x="592.0" y="126.0"/>
      <point x="656.0" y="170.0"/>
      <point x="666.0" y="272.0" type="curve" smooth="yes"/>
      <point x="673.0" y="352.0"/>
      <point x="623.0" y="405.0"/>
      <point x="549.0" y="437.0" type="curve" smooth="yes"/>
      <point x="326.0" y="533.0" type="line" smooth="yes"/>
      <point x="188.0" y="590.0"/>
      <point x="103.0" y="671.0"/>
      <point x="108.0" y="835.0" type="curve" smooth="yes"/>
      <point x="114.0" y="1031.0"/>
      <point x="276.0" y="1105.0"/>
      <point x="459.0" y="1105.0" type="curve" smooth="yes"/>
      <point x="654.0" y="1105.0"/>
      <point x="763.0" y="1016.0"/>
      <point x="811.0" y="951.0" type="curve"/>
      <point x="728.0" y="838" type="line"/>
      <point x="675.0" y="894"/>
      <point x="590.0" y="956.0"/>
      <point x="471.0" y="958.0" type="curve" smooth="yes"/>
      <point x="345.0" y="960.0"/>
      <point x="288.0" y="912.0"/>
      <point x="284.0" y="838.0" type="curve" smooth="yes"/>
      <point x="280.0" y="777.0"/>
      <point x="304.0" y="729.0"/>
      <point x="390.0" y="691.0" type="curve" smooth="yes"/>
      <point x="620.0" y="588.0" type="line" smooth="yes"/>
      <point x="754.0" y="529.0"/>
      <point x="835.0" y="458.0"/>
      <point x="831.0" y="279.0" type="curve" smooth="yes"/>
      <point x="828.0" y="86.0"/>
      <point x="686.0" y="-23.0"/>
      <point x="464.0" y="-20.0" type="curve" smooth="yes"/>
      <point x="311.0" y="-16.0"/>
      <point x="164.0" y="48.0"/>
    </contour>
  </outline>
</glyph>
<glyph name="t" format="1">
  <advance width="766"/>
  <unicode hex="0074"/>
  <outline>
    <contour>
      <point x="558" y="0" type="line" smooth="yes"/>
      <point x="335" y="0"/>
      <point x="224" y="108"/>
      <point x="224" y="316" type="curve" smooth="yes"/>
      <point x="224" y="965" type="line"/>
      <point x="47" y="965" type="line"/>
      <point x="47" y="1084" type="line"/>
      <point x="231" y="1084" type="line"/>
      <point x="254" y="1416" type="line"/>
      <point x="411" y="1416" type="line"/>
      <point x="411" y="1084" type="line"/>
      <point x="666" y="1084" type="line"/>
      <point x="666" y="965" type="line"/>
      <point x="411" y="965" type="line"/>
      <point x="411" y="308" type="line" smooth="yes"/>
      <point x="411" y="185"/>
      <point x="459" y="148"/>
      <point x="610" y="148" type="curve" smooth="yes"/>
      <point x="676" y="148" type="line"/>
      <point x="676" y="0" type="line"/>
    </contour>
  </outline>
</glyph>
<glyph name="w" format="1">
  <advance width="1537"/>
  <unicode hex="0077"/>
  <outline>
    <contour>
      <point x="1196" y="0" type="line"/>
      <point x="1007" y="0" type="line"/>
      <point x="723" y="1084" type="line"/>
      <point x="894" y="1084" type="line"/>
      <point x="1104" y="214" type="line"/>
      <point x="1327" y="1084" type="line"/>
      <point x="1493" y="1084" type="line"/>
    </contour>
    <contour>
      <point x="516" y="0" type="line"/>
      <point x="328" y="0" type="line"/>
      <point x="44" y="1084" type="line"/>
      <point x="215" y="1084" type="line"/>
      <point x="425" y="214" type="line"/>
      <point x="647" y="1084" type="line"/>
      <point x="814" y="1084" type="line"/>
    </contour>
  </outline>
</glyph>
<glyph name="x" format="1">
  <advance width="967.0"/>
  <unicode hex="0078"/>
  <outline>
    <contour>
      <point x="213.0" y="0" type="line"/>
      <point x="33.0" y="0.0" type="line"/>
      <point x="755.0" y="1084" type="line"/>
      <point x="929.0" y="1084" type="line"/>
    </contour>
    <contour>
      <point x="39.0" y="1084" type="line"/>
      <point x="221.0" y="1084" type="line"/>
      <point x="934.0" y="0.0" type="line"/>
      <point x="758.0" y="0" type="line"/>
    </contour>
  </outline>
</glyph>
<glyph name="y" format="1">
  <advance width="1011.0"/>
  <unicode hex="0079"/>
  <outline>
    <contour>
      <point x="629.0" y="44" type="line"/>
      <point x="448.0" y="-41" type="line"/>
      <point x="53.0" y="1084.0" type="line"/>
      <point x="242.0" y="1084.0" type="line"/>
      <point x="524.0" y="216" type="line"/>
      <point x="794.0" y="1084.0" type="line"/>
      <point x="978.0" y="1084.0" type="line"/>
    </contour>
    <contour>
      <point x="175.0" y="-326.0" type="line"/>
      <point x="175.0" y="-175.0" type="line"/>
      <point x="273.0" y="-175" type="line" smooth="yes"/>
      <point x="356.0" y="-175"/>
      <point x="394.0" y="-150"/>
      <point x="433.0" y="13" type="curve"/>
      <point x="640.0" y="78" type="line"/>
      <point x="542.0" y="-226"/>
      <point x="510.0" y="-326.0"/>
      <point x="280.0" y="-326.0" type="curve" smooth="yes"/>
    </contour>
  </outline>
</glyph>
<glyph name="exclamdown" format="1">
  <advance width="418"/>
  <unicode hex="00A1"/>
  <outline>
    <contour>
      <point x="89" y="1136" type="line"/>
      <point x="349" y="1136" type="line"/>
      <point x="349" y="879" type="line"/>
      <point x="89" y="879" type="line"/>
    </contour>
    <contour>
      <point x="165" y="764" type="line"/>
      <point x="271" y="764" type="line"/>
      <point x="349" y="-324" type="line"/>
      <point x="75" y="-324" type="line"/>
    </contour>
  </outline>
</glyph>
<glyph name="cent" format="1">
  <advance width="1098"/>
  <unicode hex="00A2"/>
  <outline>
    <contour>
      <point x="637" y="2" type="line"/>
      <point x="637" y="-205" type="line"/>
      <point x="500" y="-205" type="line"/>
      <point x="500" y="2" type="line"/>
    </contour>
    <contour>
      <point x="500" y="1275" type="line"/>
      <point x="637" y="1275" type="line"/>
      <point x="637" y="1068" type="line"/>
      <point x="500" y="1068" type="line"/>
    </contour>
    <component base="c"/>
  </outline>
</glyph>
<glyph name="logicalnot" format="1">
  <advance width="864"/>
  <unicode hex="00AC"/>
  <outline>
    <contour>
      <point x="721" y="588" type="line"/>
      <point x="721" y="229" type="line"/>
      <point x="589" y="229" type="line"/>
      <point x="589" y="419" type="line"/>
      <point x="138" y="419" type="line"/>
      <point x="138" y="588" type="line"/>
    </contour>
  </outline>
</glyph>
<glyph name="periodcentered" format="1">
  <advance width="412"/>
  <unicode hex="00B7"/>
  <outline>
    <contour>
      <point x="96" y="811" type="curve" smooth="yes"/>
      <point x="107" y="811"/>
      <point x="336" y="802"/>
      <point x="336" y="791" type="curve" smooth="yes"/>
      <point x="336" y="781"/>
      <point x="326" y="566"/>
      <point x="316" y="566" type="curve" smooth="yes"/>
      <point x="306" y="566"/>
      <point x="76" y="575"/>
      <point x="76" y="585" type="curve" smooth="yes"/>
      <point x="76" y="595"/>
      <point x="85" y="811"/>
    </contour>
  </outline>
</glyph>
<glyph name="Eacute" format="1">
  <advance width="763"/>
  <unicode hex="00C9"/>
  <outline>
    <contour>
      <point x="146" y="1459" type="line"/>
      <point x="853" y="1459" type="line"/>
      <point x="853" y="1223" type="line"/>
      <point x="465" y="1223" type="line"/>
      <point x="465" y="862" type="line"/>
      <point x="776" y="862" type="line"/>
      <point x="776" y="642" type="line"/>
      <point x="465" y="642" type="line"/>
      <point x="465" y="236" type="line"/>
      <point x="853" y="236" type="line"/>
      <point x="853" y="0" type="line"/>
      <point x="146" y="0" type="line"/>
    </contour>
    <contour>
      <point x="309" y="1848" type="line"/>
      <point x="575" y="1848" type="line"/>
      <point x="367" y="1529" type="line"/>
      <point x="205" y="1529" type="line"/>
    </contour>
  </outline>
</glyph>
<glyph name="Iacute" format="1">
  <advance width="458"/>
  <unicode hex="00CD"/>
  <outline>
    <contour>
      <point x="86" y="1459" type="line"/>
      <point x="374" y="1459" type="line"/>
      <point x="374" y="0" type="line"/>
      <point x="86" y="0" type="line"/>
    </contour>
    <contour>
      <point x="156" y="1848" type="line"/>
      <point x="421" y="1848" type="line"/>
      <point x="213" y="1529" type="line"/>
      <point x="52" y="1529" type="line"/>
    </contour>
  </outline>
</glyph>
<glyph name="iacute" format="1">
  <advance width="419"/>
  <unicode hex="00ED"/>
  <outline>
    <contour>
      <point x="96" y="1084" type="line"/>
      <point x="359" y="1084" type="line"/>
      <point x="359" y="0" type="line"/>
      <point x="96" y="0" type="line"/>
    </contour>
    <contour>
      <point x="250" y="1502" type="line"/>
      <point x="515" y="1502" type="line"/>
      <point x="307" y="1184" type="line"/>
      <point x="146" y="1184" type="line"/>
    </contour>
  </outline>
</glyph>
<glyph name="eth" format="1">
  <advance width="841"/>
  <unicode hex="00F0"/>
  <outline>
    <contour>
      <point x="168" y="1309" type="curve"/>
      <point x="232" y="1483" type="line"/>
      <point x="452" y="1483"/>
      <point x="589" y="1418"/>
      <point x="653" y="1341" type="curve"/>
      <point x="766" y="1393" type="line"/>
      <point x="818" y="1285" type="line"/>
      <point x="711" y="1236" type="line"/>
      <point x="745" y="1150"/>
      <point x="765" y="1056"/>
      <point x="765" y="948" type="curve" smooth="yes"/>
      <point x="765" y="251" type="line" smooth="yes"/>
      <point x="765" y="83"/>
      <point x="623" y="-20"/>
      <point x="411" y="-20" type="curve" smooth="yes"/>
      <point x="204" y="-20"/>
      <point x="68" y="83"/>
      <point x="68" y="251" type="curve" smooth="yes"/>
      <point x="68" y="768" type="line" smooth="yes"/>
      <point x="68" y="918"/>
      <point x="178" y="1002"/>
      <point x="296" y="1002" type="curve" smooth="yes"/>
      <point x="353" y="1002"/>
      <point x="433" y="989"/>
      <point x="498" y="963" type="curve"/>
      <point x="496" y="1027"/>
      <point x="489" y="1083"/>
      <point x="472" y="1129" type="curve"/>
      <point x="286" y="1074" type="line"/>
      <point x="235" y="1182" type="line"/>
      <point x="386" y="1237" type="line"/>
      <point x="326" y="1269"/>
      <point x="257" y="1309"/>
    </contour>
    <contour>
      <point x="501" y="753" type="line" smooth="yes"/>
      <point x="501" y="787"/>
      <point x="461" y="805"/>
      <point x="416" y="805" type="curve" smooth="yes"/>
      <point x="371" y="805"/>
      <point x="331" y="787"/>
      <point x="331" y="748" type="curve" smooth="yes"/>
      <point x="331" y="254" type="line" smooth="yes"/>
      <point x="331" y="219"/>
      <point x="336" y="178"/>
      <point x="411" y="178" type="curve" smooth="yes"/>
      <point x="490" y="178"/>
      <point x="501" y="218"/>
      <point x="501" y="254" type="curve" smooth="yes"/>
    </contour>
  </outline>
</glyph>
<glyph name="uacute" format="1">
  <advance width="919"/>
  <unicode hex="00FA"/>
  <outline>
    <contour>
      <point x="119" y="1084" type="line"/>
      <point x="409" y="1084" type="line"/>
      <point x="409" y="259" type="line" smooth="yes"/>
      <point x="409" y="196"/>
      <point x="447" y="173"/>
      <point x="491" y="173" type="curve" smooth="yes"/>
      <point x="546" y="173"/>
      <point x="603" y="209"/>
      <point x="603" y="245" type="curve" smooth="yes"/>
      <point x="603" y="1084" type="line"/>
      <point x="894" y="1084" type="line"/>
      <point x="894" y="0" type="line"/>
      <point x="603" y="0" type="line"/>
      <point x="603" y="68" type="line"/>
      <point x="550" y="26"/>
      <point x="482" y="-20"/>
      <point x="354" y="-20" type="curve" smooth="yes"/>
      <point x="199" y="-20"/>
      <point x="119" y="88"/>
      <point x="119" y="223" type="curve" smooth="yes"/>
    </contour>
    <contour>
      <point x="412" y="1502" type="line"/>
      <point x="677" y="1502" type="line"/>
      <point x="469" y="1184" type="line"/>
      <point x="308" y="1184" type="line"/>
    </contour>
  </outline>
</glyph>
<glyph name="endash" format="1">
  <advance width="539"/>
  <unicode hex="2013"/>
  <outline>
    <contour>
      <point x="2" y="569" type="line"/>
      <point x="535" y="569" type="line"/>
      <point x="535" y="402" type="line"/>
      <point x="2" y="402" type="line"/>
    </contour>
  </outline>
</glyph>
<glyph name="perthousand" format="1">
  <advance width="1667"/>
  <unicode hex="2030"/>
  <outline>
    <contour>
      <point x="793" y="1604" type="line"/>
      <point x="934" y="1604" type="line"/>
      <point x="381" y="-6" type="line"/>
      <point x="240" y="-6" type="line"/>
    </contour>
    <contour>
      <point x="59" y="1353" type="line" smooth="yes"/>
      <point x="59" y="1550"/>
      <point x="69" y="1604"/>
      <point x="268" y="1604" type="curve" smooth="yes"/>
      <point x="461" y="1604"/>
      <point x="477" y="1556"/>
      <point x="477" y="1353" type="curve" smooth="yes"/>
      <point x="477" y="1075" type="line" smooth="yes"/>
      <point x="477" y="876"/>
      <point x="463" y="820"/>
      <point x="268" y="820" type="curve" smooth="yes"/>
      <point x="67" y="820"/>
      <point x="59" y="880"/>
      <point x="59" y="1075" type="curve" smooth="yes"/>
    </contour>
    <contour>
      <point x="229" y="1418" type="curve" smooth="yes"/>
      <point x="229" y="1007" type="line" smooth="yes"/>
      <point x="229" y="973"/>
      <point x="245" y="959"/>
      <point x="268" y="959" type="curve" smooth="yes"/>
      <point x="293" y="959"/>
      <point x="307" y="975"/>
      <point x="307" y="1007" type="curve" smooth="yes"/>
      <point x="307" y="1418" type="line" smooth="yes"/>
      <point x="307" y="1450"/>
      <point x="297" y="1465"/>
      <point x="268" y="1465" type="curve" smooth="yes"/>
      <point x="239" y="1465"/>
      <point x="229" y="1448"/>
    </contour>
    <contour>
      <point x="690" y="525" type="line" smooth="yes"/>
      <point x="690" y="722"/>
      <point x="700" y="777"/>
      <point x="899" y="777" type="curve" smooth="yes"/>
      <point x="1092" y="777"/>
      <point x="1108" y="728"/>
      <point x="1108" y="525" type="curve" smooth="yes"/>
      <point x="1108" y="248" type="line" smooth="yes"/>
      <point x="1108" y="49"/>
      <point x="1094" y="-6"/>
      <point x="899" y="-6" type="curve" smooth="yes"/>
      <point x="698" y="-6"/>
      <point x="690" y="53"/>
      <point x="690" y="248" type="curve" smooth="yes"/>
    </contour>
    <contour>
      <point x="862" y="589" type="curve" smooth="yes"/>
      <point x="862" y="180" type="line" smooth="yes"/>
      <point x="862" y="146"/>
      <point x="876" y="132"/>
      <point x="899" y="132" type="curve" smooth="yes"/>
      <point x="924" y="132"/>
      <point x="938" y="148"/>
      <point x="938" y="180" type="curve" smooth="yes"/>
      <point x="938" y="589" type="line" smooth="yes"/>
      <point x="938" y="621"/>
      <point x="928" y="637"/>
      <point x="899" y="637" type="curve" smooth="yes"/>
      <point x="870" y="637"/>
      <point x="862" y="619"/>
    </contour>
    <contour>
      <point x="1190" y="525" type="line" smooth="yes"/>
      <point x="1190" y="722"/>
      <point x="1198" y="777"/>
      <point x="1397" y="777" type="curve" smooth="yes"/>
      <point x="1590" y="777"/>
      <point x="1606" y="728"/>
      <point x="1606" y="525" type="curve" smooth="yes"/>
      <point x="1606" y="248" type="line" smooth="yes"/>
      <point x="1606" y="49"/>
      <point x="1592" y="-6"/>
      <point x="1397" y="-6" type="curve" smooth="yes"/>
      <point x="1196" y="-6"/>
      <point x="1190" y="53"/>
      <point x="1190" y="248" type="curve" smooth="yes"/>
    </contour>
    <contour>
      <point x="1360" y="589" type="curve" smooth="yes"/>
      <point x="1360" y="180" type="line" smooth="yes"/>
      <point x="1360" y="146"/>
      <point x="1374" y="132"/>
      <point x="1397" y="132" type="curve" smooth="yes"/>
      <point x="1422" y="132"/>
      <point x="1436" y="148"/>
      <point x="1436" y="180" type="curve" smooth="yes"/>
      <point x="1436" y="589" type="line" smooth="yes"/>
      <point x="1436" y="621"/>
      <point x="1426" y="637"/>
      <point x="1397" y="637" type="curve" smooth="yes"/>
      <point x="1368" y="637"/>
      <point x="1360" y="619"/>
    </contour>
  </outline>
</glyph>
<glyph name="a.alt" format="1">
  <advance width="1086"/>
  <outline>
    <contour>
      <point x="945.0" y="815.0" type="curve" smooth="yes"/>
      <point x="945.0" y="0.0" type="line"/>
      <point x="812.0" y="0.0" type="line"/>
      <point x="777.0" y="112.0" type="line"/>
      <point x="708.0" y="32.0"/>
      <point x="597.0" y="-20.0"/>
      <point x="450.0" y="-20.0" type="curve" smooth="yes"/>
      <point x="279.0" y="-20.0"/>
      <point x="122.0" y="41.0"/>
      <point x="114.0" y="269.0" type="curve" smooth="yes"/>
      <point x="109.0" y="405.0"/>
      <point x="170.0" y="541.0"/>
      <point x="517.0" y="562.0" type="curve" smooth="yes"/>
      <point x="757.0" y="577.0" type="line"/>
      <point x="757.0" y="816.0" type="line" smooth="yes"/>
      <point x="757.0" y="904.0"/>
      <point x="730.0" y="961.0"/>
      <point x="538.0" y="961.0" type="curve" smooth="yes"/>
      <point x="325.0" y="961.0"/>
      <point x="323.0" y="884.0"/>
      <point x="323.0" y="812.0" type="curve" smooth="yes"/>
      <point x="323.0" y="711.0" type="line"/>
      <point x="142.0" y="711.0" type="line"/>
      <point x="142.0" y="798.0" type="line" smooth="yes"/>
      <point x="142.0" y="1012.0"/>
      <point x="263.0" y="1104.0"/>
      <point x="541.0" y="1104.0" type="curve" smooth="yes"/>
      <point x="849.0" y="1104.0"/>
      <point x="945.0" y="984.0"/>
    </contour>
    <contour>
      <point x="757.0" y="463.0" type="line"/>
      <point x="544.0" y="448.0" type="line" smooth="yes"/>
      <point x="314.0" y="432.0"/>
      <point x="291.0" y="347.0"/>
      <point x="300.0" y="251.0" type="curve" smooth="yes"/>
      <point x="310.0" y="149.0"/>
      <point x="364.0" y="113.0"/>
      <point x="481.0" y="113.0" type="curve" smooth="yes"/>
      <point x="625.0" y="113.0"/>
      <point x="741.0" y="208.0"/>
      <point x="757.0" y="219.0" type="curve"/>
    </contour>
  </outline>
</glyph>
<glyph name="a.alt2" format="1">
  <advance width="1148"/>
  <outline>
    <contour>
      <point x="1085" y="129" type="line"/>
      <point x="1037" y="129" type="line" smooth="yes"/>
      <point x="982" y="129"/>
      <point x="954" y="162"/>
      <point x="954" y="247" type="curve" smooth="yes"/>
      <point x="954" y="257"/>
      <point x="954" y="267"/>
      <point x="954" y="278" type="curve" smooth="yes"/>
      <point x="954" y="715" type="line" smooth="yes"/>
      <point x="954" y="938"/>
      <point x="840" y="1104"/>
      <point x="560" y="1104" type="curve" smooth="yes"/>
      <point x="282" y="1104"/>
      <point x="144" y="977"/>
      <point x="144" y="763" type="curve" smooth="yes"/>
      <point x="144" y="711" type="line"/>
      <point x="325" y="711" type="line"/>
      <point x="325" y="762" type="line" smooth="yes"/>
      <point x="325" y="849"/>
      <point x="346" y="961"/>
      <point x="559" y="961" type="curve" smooth="yes"/>
      <point x="751" y="961"/>
      <point x="766" y="849"/>
      <point x="766" y="770" type="curve"/>
      <point x="766" y="662"/>
      <point x="647" y="637"/>
      <point x="526" y="614" type="curve" smooth="yes"/>
      <point x="194" y="551"/>
      <point x="117" y="432"/>
      <point x="117" y="289" type="curve" smooth="yes"/>
      <point x="117" y="122"/>
      <point x="233" y="-20"/>
      <point x="458" y="-20" type="curve" smooth="yes"/>
      <point x="653" y="-20"/>
      <point x="741" y="69"/>
      <point x="788" y="143" type="curve"/>
      <point x="804" y="34"/>
      <point x="885" y="-10"/>
      <point x="1010" y="-10" type="curve" smooth="yes"/>
      <point x="1085" y="-10" type="line"/>
    </contour>
    <contour>
      <point x="766" y="279" type="line"/>
      <point x="736" y="179"/>
      <point x="600" y="116"/>
      <point x="487" y="116" type="curve" smooth="yes"/>
      <point x="384" y="116"/>
      <point x="299" y="168"/>
      <point x="299" y="279" type="curve" smooth="yes"/>
      <point x="299" y="383"/>
      <point x="337" y="438"/>
      <point x="541" y="488" type="curve" smooth="yes"/>
      <point x="668" y="519"/>
      <point x="748" y="556"/>
      <point x="766" y="579" type="curve"/>
    </contour>
  </outline>
</glyph>
<glyph name="b.alt" format="1">
  <advance width="1145"/>
  <outline>
    <contour>
      <point x="150.0" y="1459.0" type="line"/>
      <point x="338.0" y="1459.0" type="line"/>
      <point x="338.0" y="1032.0" type="line"/>
      <point x="403.0" y="1083.0"/>
      <point x="524.0" y="1104.0"/>
      <point x="597.0" y="1104.0" type="curve" smooth="yes"/>
      <point x="868.0" y="1104.0"/>
      <point x="1017.0" y="956.0"/>
      <point x="1017.0" y="747.0" type="curve" smooth="yes"/>
      <point x="1017.0" y="345.0" type="line" smooth="yes"/>
      <point x="1017.0" y="112.0"/>
      <point x="886.0" y="-20.0"/>
      <point x="610.0" y="-20.0" type="curve" smooth="yes"/>
      <point x="502.0" y="-20.0"/>
      <point x="368.0" y="32.0"/>
      <point x="338.0" y="83.0" type="curve"/>
      <point x="338.0" y="0.0" type="line"/>
      <point x="150.0" y="0.0" type="line"/>
    </contour>
    <contour>
      <point x="582.0" y="124.0" type="curve" smooth="yes"/>
      <point x="730.0" y="124.0"/>
      <point x="829.0" y="179.0"/>
      <point x="829.0" y="324.0" type="curve" smooth="yes"/>
      <point x="829.0" y="778.0" type="line" smooth="yes"/>
      <point x="829.0" y="908.0"/>
      <point x="723.0" y="959.0"/>
      <point x="585.0" y="959.0" type="curve" smooth="yes"/>
      <point x="445.0" y="959.0"/>
      <point x="348.0" y="895.0"/>
      <point x="338.0" y="874.0" type="curve"/>
      <point x="338.0" y="252.0" type="line" smooth="yes"/>
      <point x="338.0" y="192.0"/>
      <point x="415.0" y="124.0"/>
    </contour>
  </outline>
</glyph>
<glyph name="s.alt" format="1">
  <advance width="923"/>
  <outline>
    <contour>
      <point x="113.0" y="81.0" type="curve"/>
      <point x="171.0" y="218.0" type="line"/>
      <point x="212.0" y="193.0"/>
      <point x="337.0" y="128.0"/>
      <point x="478.0" y="128.0" type="curve" smooth="yes"/>
      <point x="610.0" y="128.0"/>
      <point x="669.0" y="174.0"/>
      <point x="679.0" y="273.0" type="curve" smooth="yes"/>
      <point x="686.0" y="347.0"/>
      <point x="628.0" y="395.0"/>
      <point x="557.0" y="430.0" type="curve" smooth="yes"/>
      <point x="344.0" y="536.0" type="line" smooth="yes"/>
      <point x="211.0" y="601.0"/>
      <point x="115.0" y="673.0"/>
      <point x="118.0" y="831.0" type="curve" smooth="yes"/>
      <point x="122.0" y="1027.0"/>
      <point x="274.0" y="1105.0"/>
      <point x="454.0" y="1105.0" type="curve" smooth="yes"/>
      <point x="620.0" y="1105.0"/>
      <point x="744.0" y="1052.0"/>
      <point x="799.0" y="1018.0" type="curve"/>
      <point x="754.0" y="884.0" type="line"/>
      <point x="704.0" y="912.0"/>
      <point x="580.0" y="958.0"/>
      <point x="469.0" y="958.0" type="curve" smooth="yes"/>
      <point x="339.0" y="958.0"/>
      <point x="291.0" y="909.0"/>
      <point x="291.0" y="835.0" type="curve"/>
      <point x="291.0" y="777.0"/>
      <point x="316.0" y="740.0"/>
      <point x="404.0" y="695.0" type="curve" smooth="yes"/>
      <point x="622.0" y="583.0" type="line" smooth="yes"/>
      <point x="743.0" y="521.0"/>
      <point x="843.0" y="465.0"/>
      <point x="843.0" y="286.0" type="curve" smooth="yes"/>
      <point x="843.0" y="99.0"/>
      <point x="710.0" y="-20.0"/>
      <point x="490.0" y="-20.0" type="curve" smooth="yes"/>
      <point x="367.0" y="-20.0"/>
      <point x="203.0" y="18.0"/>
    </contour>
  </outline>
</glyph>
